<svg width="16" height="16" viewBox="0 0 16 16" fill="none" xmlns="http://www.w3.org/2000/svg">
<path d="M8 0.000244141C5.829 0.000244141 5.556 0.0102441 4.703 0.0482441C3.85 0.0882441 3.269 0.222244 2.76 0.420244C2.22609 0.621063 1.74249 0.93607 1.343 1.34324C0.936076 1.74294 0.621107 2.22648 0.42 2.76024C0.222 3.26824 0.087 3.85024 0.048 4.70024C0.01 5.55524 0 5.82724 0 8.00124C0 10.1732 0.01 10.4452 0.048 11.2982C0.088 12.1502 0.222 12.7312 0.42 13.2402C0.625 13.7662 0.898 14.2122 1.343 14.6572C1.787 15.1022 2.233 15.3762 2.759 15.5802C3.269 15.7782 3.849 15.9132 4.701 15.9522C5.555 15.9902 5.827 16.0002 8 16.0002C10.173 16.0002 10.444 15.9902 11.298 15.9522C12.149 15.9122 12.732 15.7782 13.241 15.5802C13.7746 15.3793 14.2578 15.0643 14.657 14.6572C15.102 14.2122 15.375 13.7662 15.58 13.2402C15.777 12.7312 15.912 12.1502 15.952 11.2982C15.99 10.4452 16 10.1732 16 8.00024C16 5.82724 15.99 5.55524 15.952 4.70124C15.912 3.85024 15.777 3.26824 15.58 2.76024C15.3789 2.22647 15.0639 1.74292 14.657 1.34324C14.2576 0.93592 13.774 0.62089 13.24 0.420244C12.73 0.222244 12.148 0.0872441 11.297 0.0482441C10.443 0.0102441 10.172 0.000244141 7.998 0.000244141H8.001H8ZM7.283 1.44224H8.001C10.137 1.44224 10.39 1.44924 11.233 1.48824C12.013 1.52324 12.437 1.65424 12.719 1.76324C13.092 1.90824 13.359 2.08224 13.639 2.36224C13.919 2.64224 14.092 2.90824 14.237 3.28224C14.347 3.56324 14.477 3.98724 14.512 4.76724C14.551 5.61024 14.559 5.86324 14.559 7.99824C14.559 10.1332 14.551 10.3872 14.512 11.2302C14.477 12.0102 14.346 12.4332 14.237 12.7152C14.1087 13.0626 13.904 13.3767 13.638 13.6342C13.358 13.9142 13.092 14.0872 12.718 14.2322C12.438 14.3422 12.014 14.4722 11.233 14.5082C10.39 14.5462 10.137 14.5552 8.001 14.5552C5.865 14.5552 5.611 14.5462 4.768 14.5082C3.988 14.4722 3.565 14.3422 3.283 14.2322C2.9355 14.1042 2.62113 13.8998 2.363 13.6342C2.09675 13.3763 1.89172 13.0619 1.763 12.7142C1.654 12.4332 1.523 12.0092 1.488 11.2292C1.45 10.3862 1.442 10.1332 1.442 7.99624C1.442 5.86024 1.45 5.60824 1.488 4.76524C1.524 3.98524 1.654 3.56124 1.764 3.27924C1.909 2.90624 2.083 2.63924 2.363 2.35924C2.643 2.07924 2.909 1.90624 3.283 1.76124C3.565 1.65124 3.988 1.52124 4.768 1.48524C5.506 1.45124 5.792 1.44124 7.283 1.44024V1.44224ZM12.271 2.77024C12.1449 2.77024 12.0201 2.79508 11.9036 2.84332C11.7872 2.89156 11.6813 2.96228 11.5922 3.05142C11.503 3.14057 11.4323 3.2464 11.3841 3.36287C11.3358 3.47934 11.311 3.60418 11.311 3.73024C11.311 3.85631 11.3358 3.98115 11.3841 4.09762C11.4323 4.21409 11.503 4.31992 11.5922 4.40907C11.6813 4.49821 11.7872 4.56892 11.9036 4.61717C12.0201 4.66541 12.1449 4.69024 12.271 4.69024C12.5256 4.69024 12.7698 4.5891 12.9498 4.40907C13.1299 4.22903 13.231 3.98485 13.231 3.73024C13.231 3.47564 13.1299 3.23146 12.9498 3.05142C12.7698 2.87139 12.5256 2.77024 12.271 2.77024ZM8.001 3.89224C7.45607 3.88374 6.91489 3.98373 6.40898 4.18639C5.90306 4.38904 5.44251 4.69032 5.05415 5.07267C4.66579 5.45502 4.35736 5.91081 4.14684 6.4135C3.93632 6.9162 3.8279 7.45575 3.8279 8.00074C3.8279 8.54574 3.93632 9.08529 4.14684 9.58798C4.35736 10.0907 4.66579 10.5465 5.05415 10.9288C5.44251 11.3112 5.90306 11.6124 6.40898 11.8151C6.91489 12.0178 7.45607 12.1177 8.001 12.1092C9.07954 12.0924 10.1082 11.6522 10.865 10.8835C11.6217 10.1148 12.0459 9.07942 12.0459 8.00074C12.0459 6.92207 11.6217 5.88666 10.865 5.11799C10.1082 4.34933 9.07954 3.90907 8.001 3.89224ZM8.001 5.33324C8.70833 5.33324 9.38669 5.61423 9.88685 6.11439C10.387 6.61455 10.668 7.29291 10.668 8.00024C10.668 8.70758 10.387 9.38594 9.88685 9.8861C9.38669 10.3863 8.70833 10.6672 8.001 10.6672C7.29367 10.6672 6.61531 10.3863 6.11515 9.8861C5.61499 9.38594 5.334 8.70758 5.334 8.00024C5.334 7.29291 5.61499 6.61455 6.11515 6.11439C6.61531 5.61423 7.29367 5.33324 8.001 5.33324Z" fill="white"/>
</svg>
