<svg width="16" height="13" viewBox="0 0 16 13" fill="none" xmlns="http://www.w3.org/2000/svg">
<path d="M5.026 13.0009C11.064 13.0009 14.367 7.99794 14.367 3.66694C14.367 3.52694 14.367 3.38494 14.361 3.24494C15.0041 2.77942 15.5591 2.20309 16 1.54294C15.3993 1.80779 14.7628 1.98234 14.111 2.06094C14.7975 1.65057 15.3117 1.00491 15.558 0.243937C14.913 0.626061 14.207 0.894311 13.471 1.03694C12.9762 0.509961 12.3214 0.160855 11.6081 0.0436948C10.8948 -0.0734655 10.1627 0.0478587 9.52534 0.388875C8.88796 0.72989 8.38081 1.27157 8.08245 1.93C7.78409 2.58843 7.71118 3.32687 7.875 4.03094C6.56974 3.96549 5.29282 3.62641 4.12704 3.03568C2.96127 2.44495 1.93268 1.61578 1.108 0.601937C0.68934 1.32502 0.561574 2.18034 0.750646 2.9942C0.939718 3.80807 1.43145 4.51947 2.126 4.98394C1.60554 4.96625 1.09652 4.8265 0.64 4.57594V4.62094C0.640897 5.37842 0.903307 6.11236 1.38287 6.6987C1.86244 7.28504 2.52975 7.68781 3.272 7.83894C2.99026 7.91655 2.69923 7.95524 2.407 7.95394C2.20098 7.95456 1.99538 7.93547 1.793 7.89694C2.00279 8.54899 2.41127 9.1191 2.96125 9.52741C3.51122 9.93573 4.17513 10.1618 4.86 10.1739C3.69656 11.0877 2.2594 11.5833 0.78 11.5809C0.519321 11.582 0.258823 11.567 0 11.5359C1.50151 12.4932 3.2453 13.0015 5.026 13.0009Z" fill="white"/>
</svg>
