<svg width="16" height="12" viewBox="0 0 16 12" fill="none" xmlns="http://www.w3.org/2000/svg">
<path d="M8.051 -0.000732422H8.14C8.962 0.00226758 13.127 0.0322677 14.25 0.334268C14.5895 0.426436 14.8989 0.60609 15.1472 0.855276C15.3955 1.10446 15.574 1.41445 15.665 1.75427C15.766 2.13427 15.837 2.63727 15.885 3.15627L15.895 3.26027L15.917 3.52027L15.925 3.62427C15.99 4.53827 15.998 5.39427 15.999 5.58127V5.65627C15.998 5.85027 15.989 6.76427 15.917 7.71627L15.909 7.82127L15.9 7.92527C15.85 8.49727 15.776 9.06527 15.665 9.48327C15.5743 9.82322 15.3958 10.1334 15.1475 10.3826C14.8991 10.6318 14.5896 10.8114 14.25 10.9033C13.09 11.2153 8.681 11.2373 8.07 11.2383H7.928C7.619 11.2383 6.341 11.2323 5.001 11.1863L4.831 11.1803L4.744 11.1763L4.573 11.1693L4.402 11.1623C3.292 11.1133 2.235 11.0343 1.748 10.9023C1.40849 10.8105 1.09907 10.6311 0.850724 10.382C0.602384 10.133 0.423847 9.82304 0.333 9.48327C0.222 9.06627 0.148 8.49727 0.098 7.92527L0.09 7.82027L0.082 7.71627C0.0326476 7.03867 0.00529987 6.35964 0 5.68027L0 5.55727C0.002 5.34227 0.01 4.59927 0.064 3.77927L0.071 3.67627L0.074 3.62427L0.082 3.52027L0.104 3.26027L0.114 3.15627C0.162 2.63727 0.233 2.13327 0.334 1.75427C0.424694 1.41432 0.603162 1.10418 0.851513 0.85495C1.09986 0.605721 1.40937 0.42616 1.749 0.334268C2.236 0.204268 3.293 0.124268 4.403 0.0742675L4.573 0.0672675L4.745 0.0612677L4.831 0.0582677L5.002 0.0512677C5.95371 0.0206423 6.90581 0.00364044 7.858 0.000267625H8.051V-0.000732422ZM6.4 3.20927V8.02727L10.557 5.61927L6.4 3.20927Z" fill="white"/>
</svg>
