<svg width="13" height="14" viewBox="0 0 13 14" fill="none" xmlns="http://www.w3.org/2000/svg">
<path d="M6.49933 13.6667C3.20378 13.6232 0.542765 10.9622 0.499328 7.66668C0.542765 4.37113 3.20378 1.71011 6.49933 1.66668C9.79488 1.71011 12.4559 4.37113 12.4993 7.66668C12.4559 10.9622 9.79488 13.6232 6.49933 13.6667ZM6.49933 3.00001C3.93611 3.03376 1.86641 5.10346 1.83266 7.66668C1.86641 10.2299 3.93611 12.2996 6.49933 12.3333C9.06255 12.2996 11.1322 10.2299 11.166 7.66668C11.1322 5.10346 9.06255 3.03376 6.49933 3.00001ZM9.83266 8.33334H5.83266V4.33334H7.16599V7.00001H9.83266V8.33334ZM12.0273 3.47201L10.0213 1.47201L10.9607 0.527344L12.9673 2.52734L12.0273 3.47134V3.47201ZM0.970662 3.47201L0.0273285 2.52734L2.02133 0.527344L2.96466 1.47201L0.971995 3.47201H0.970662Z" fill="#23A6F0"/>
</svg>
