<svg width="24" height="45" viewBox="0 0 24 45" fill="none" xmlns="http://www.w3.org/2000/svg">
<path fill-rule="evenodd" clip-rule="evenodd" d="M23.4993 43.7724C23.341 43.9302 23.1529 44.0554 22.9458 44.1408C22.7387 44.2263 22.5167 44.2703 22.2925 44.2703C22.0683 44.2703 21.8463 44.2263 21.6392 44.1408C21.4321 44.0554 21.244 43.9302 21.0857 43.7724L0.631107 23.4352C0.472368 23.2778 0.346428 23.0908 0.260496 22.8849C0.174566 22.679 0.130333 22.4582 0.130333 22.2353C0.130333 22.0124 0.174566 21.7917 0.260496 21.5858C0.346428 21.3799 0.472368 21.1928 0.631107 21.0354L21.0857 0.698261C21.4057 0.380028 21.8398 0.201248 22.2925 0.201248C22.7451 0.201248 23.1792 0.380028 23.4993 0.698261C23.8194 1.01649 23.9992 1.4481 23.9992 1.89815C23.9992 2.3482 23.8194 2.77981 23.4993 3.09805L4.24815 22.2353L23.4993 41.3726C23.658 41.53 23.784 41.717 23.8699 41.9229C23.9558 42.1288 24.0001 42.3496 24.0001 42.5725C24.0001 42.7954 23.9558 43.0161 23.8699 43.222C23.784 43.4279 23.658 43.6149 23.4993 43.7724Z" fill="white"/>
</svg>
