<svg width="16" height="12" viewBox="0 0 16 12" fill="none" xmlns="http://www.w3.org/2000/svg">
<path d="M-0.499496 2C-0.499496 1.46957 -0.288783 0.960859 0.08629 0.585786C0.461363 0.210714 0.970071 0 1.5005 0H13.5005C14.0309 0 14.5396 0.210714 14.9147 0.585786C15.2898 0.960859 15.5005 1.46957 15.5005 2V10C15.5005 10.5304 15.2898 11.0391 14.9147 11.4142C14.5396 11.7893 14.0309 12 13.5005 12H1.5005C0.970071 12 0.461363 11.7893 0.08629 11.4142C-0.288783 11.0391 -0.499496 10.5304 -0.499496 10V2ZM1.5005 1C1.23529 1 0.980933 1.10536 0.793397 1.29289C0.60586 1.48043 0.500504 1.73478 0.500504 2V2.217L7.5005 6.417L14.5005 2.217V2C14.5005 1.73478 14.3951 1.48043 14.2076 1.29289C14.0201 1.10536 13.7657 1 13.5005 1H1.5005ZM14.5005 3.383L9.7425 6.238L14.5005 9.114V3.384V3.383ZM14.4665 10.261L8.7715 6.82L7.5005 7.583L6.2285 6.82L0.534504 10.26C0.591702 10.4724 0.717352 10.6601 0.891991 10.7938C1.06663 10.9276 1.28051 11.0001 1.5005 11H13.5005C13.7204 11.0001 13.9341 10.9278 14.1088 10.7942C14.2834 10.6607 14.4091 10.4732 14.4665 10.261ZM0.500504 9.114L5.2585 6.238L0.500504 3.383V9.113V9.114Z" fill="white"/>
</svg>
