<svg width="16" height="15" viewBox="0 0 16 15" fill="none" xmlns="http://www.w3.org/2000/svg">
<path d="M8.00014 2.74805L7.28314 2.01105C5.60014 0.281049 2.51414 0.878049 1.40014 3.05305C0.877139 4.07605 0.759139 5.55305 1.71414 7.43805C2.63414 9.25305 4.54814 11.427 8.00014 13.795C11.4521 11.427 13.3651 9.25305 14.2861 7.43805C15.2411 5.55205 15.1241 4.07605 14.6001 3.05305C13.4861 0.878049 10.4001 0.280049 8.71714 2.01005L8.00014 2.74805ZM8.00014 15C-7.33286 4.86805 3.27914 -3.03995 7.82414 1.14305C7.88414 1.19805 7.94314 1.25505 8.00014 1.31405C8.05656 1.2551 8.11527 1.19839 8.17614 1.14405C12.7201 -3.04195 23.3331 4.86705 8.00014 15Z" fill="#23A6F0"/>
</svg>
