<svg width="105" height="24" viewBox="0 0 105 24" fill="none" xmlns="http://www.w3.org/2000/svg">
<path d="M7.408 18H0.0640001V1.224H6.592C7.728 1.224 8.704 1.36 9.52 1.632C10.352 1.904 10.976 2.272 11.392 2.736C12.144 3.6 12.52 4.576 12.52 5.664C12.52 6.976 12.096 7.952 11.248 8.592C10.96 8.816 10.76 8.96 10.648 9.024C10.536 9.072 10.336 9.16 10.048 9.288C11.088 9.512 11.912 9.984 12.52 10.704C13.144 11.408 13.456 12.288 13.456 13.344C13.456 14.512 13.056 15.544 12.256 16.44C11.328 17.48 9.712 18 7.408 18ZM3.808 8.016H5.584C6.624 8.016 7.392 7.904 7.888 7.68C8.4 7.456 8.656 6.976 8.656 6.24C8.656 5.488 8.424 4.992 7.96 4.752C7.496 4.512 6.712 4.392 5.608 4.392H3.808V8.016ZM3.808 14.832H6.376C7.448 14.832 8.248 14.704 8.776 14.448C9.32 14.176 9.592 13.656 9.592 12.888C9.592 12.104 9.304 11.592 8.728 11.352C8.168 11.096 7.264 10.968 6.016 10.968H3.808V14.832ZM27.3189 18H23.9349V16.44C23.0069 17.608 21.8549 18.192 20.4789 18.192C19.1189 18.192 17.9749 17.8 17.0469 17.016C16.1189 16.216 15.6549 15.16 15.6549 13.848C15.6549 12.52 16.1349 11.528 17.0949 10.872C18.0549 10.216 19.3669 9.888 21.0309 9.888H23.7189V9.816C23.7189 8.44 22.9909 7.752 21.5349 7.752C20.9109 7.752 20.2469 7.88 19.5429 8.136C18.8549 8.376 18.2709 8.68 17.7909 9.048L16.1829 6.72C17.8789 5.488 19.8149 4.872 21.9909 4.872C23.5589 4.872 24.8389 5.264 25.8309 6.048C26.8229 6.832 27.3189 8.072 27.3189 9.768V18ZM23.6949 13.08V12.456H21.4389C19.9989 12.456 19.2789 12.904 19.2789 13.8C19.2789 14.264 19.4469 14.624 19.7829 14.88C20.1349 15.12 20.6309 15.24 21.2709 15.24C21.9109 15.24 22.4709 15.048 22.9509 14.664C23.4469 14.264 23.6949 13.736 23.6949 13.08ZM34.3009 10.8V18H30.7009V5.088H34.3009V6.528C35.3889 5.424 36.6129 4.872 37.9729 4.872C39.3329 4.872 40.4689 5.352 41.3809 6.312C42.3089 7.272 42.7729 8.552 42.7729 10.152V18H39.1729V10.704C39.1729 8.72 38.4449 7.728 36.9889 7.728C36.2689 7.728 35.6369 7.992 35.0929 8.52C34.5649 9.032 34.3009 9.792 34.3009 10.8ZM51.289 18.192C49.769 18.192 48.409 17.544 47.209 16.248C46.009 14.952 45.409 13.344 45.409 11.424C45.409 9.504 45.993 7.936 47.161 6.72C48.329 5.488 49.697 4.872 51.265 4.872C52.833 4.872 54.113 5.424 55.105 6.528V0.191999H58.705V18H55.105V16.296C54.097 17.56 52.825 18.192 51.289 18.192ZM49.033 11.568C49.033 12.608 49.345 13.464 49.969 14.136C50.593 14.792 51.321 15.12 52.153 15.12C52.985 15.12 53.689 14.792 54.265 14.136C54.857 13.464 55.153 12.608 55.153 11.568C55.153 10.512 54.857 9.64 54.265 8.952C53.689 8.248 52.977 7.896 52.129 7.896C51.281 7.896 50.553 8.248 49.945 8.952C49.337 9.656 49.033 10.528 49.033 11.568ZM73.1814 18H69.7974V16.44C68.8694 17.608 67.7174 18.192 66.3414 18.192C64.9814 18.192 63.8374 17.8 62.9094 17.016C61.9814 16.216 61.5174 15.16 61.5174 13.848C61.5174 12.52 61.9974 11.528 62.9574 10.872C63.9174 10.216 65.2294 9.888 66.8934 9.888H69.5814V9.816C69.5814 8.44 68.8534 7.752 67.3974 7.752C66.7734 7.752 66.1094 7.88 65.4054 8.136C64.7174 8.376 64.1334 8.68 63.6534 9.048L62.0454 6.72C63.7414 5.488 65.6774 4.872 67.8534 4.872C69.4214 4.872 70.7014 5.264 71.6934 6.048C72.6854 6.832 73.1814 8.072 73.1814 9.768V18ZM69.5574 13.08V12.456H67.3014C65.8614 12.456 65.1414 12.904 65.1414 13.8C65.1414 14.264 65.3094 14.624 65.6454 14.88C65.9974 15.12 66.4934 15.24 67.1334 15.24C67.7734 15.24 68.3334 15.048 68.8134 14.664C69.3094 14.264 69.5574 13.736 69.5574 13.08ZM85.6114 11.28C85.6114 10.24 85.3234 9.424 84.7474 8.832C84.1714 8.24 83.4594 7.944 82.6114 7.944C81.7634 7.944 81.0274 8.24 80.4034 8.832C79.7954 9.424 79.4914 10.232 79.4914 11.256C79.4914 12.28 79.7874 13.112 80.3794 13.752C80.9874 14.376 81.7234 14.688 82.5874 14.688C83.4514 14.688 84.1714 14.376 84.7474 13.752C85.3234 13.128 85.6114 12.304 85.6114 11.28ZM86.1154 15.816C84.9794 17.08 83.5634 17.712 81.8674 17.712C80.1874 17.712 78.7634 17.144 77.5954 16.008C76.4434 14.856 75.8674 13.328 75.8674 11.424C75.8674 9.504 76.4594 7.936 77.6434 6.72C78.8434 5.488 80.2114 4.872 81.7474 4.872C83.2834 4.872 84.5554 5.504 85.5634 6.768V5.064H89.1634V16.32C89.1634 17.472 88.9634 18.496 88.5634 19.392C88.1634 20.288 87.6274 20.992 86.9554 21.504C85.6274 22.56 84.0594 23.088 82.2514 23.088C81.2914 23.088 80.3074 22.928 79.2994 22.608C78.3074 22.304 77.4354 21.864 76.6834 21.288L78.0754 18.576C79.2594 19.472 80.5074 19.92 81.8194 19.92C83.1474 19.92 84.1954 19.592 84.9634 18.936C85.7314 18.28 86.1154 17.24 86.1154 15.816ZM103.855 16.128C102.399 17.504 100.687 18.192 98.7192 18.192C96.7672 18.192 95.1512 17.592 93.8712 16.392C92.5912 15.176 91.9512 13.552 91.9512 11.52C91.9512 9.488 92.5992 7.872 93.8952 6.672C95.2072 5.472 96.7512 4.872 98.5272 4.872C100.303 4.872 101.807 5.408 103.039 6.48C104.287 7.552 104.911 9.024 104.911 10.896V12.816H95.5032C95.6152 13.52 95.9832 14.096 96.6072 14.544C97.2312 14.992 97.9352 15.216 98.7192 15.216C99.9832 15.216 101.023 14.792 101.839 13.944L103.855 16.128ZM101.263 10.248C101.183 9.48 100.895 8.888 100.399 8.472C99.9032 8.056 99.2952 7.848 98.5752 7.848C97.8712 7.848 97.2232 8.064 96.6312 8.496C96.0392 8.928 95.6952 9.512 95.5992 10.248H101.263Z" fill="#252B42"/>
</svg>
