<svg width="16" height="16" viewBox="0 0 16 16" fill="none" xmlns="http://www.w3.org/2000/svg">
<path d="M11.7426 10.344C12.7109 9.02267 13.1446 7.38447 12.9569 5.75713C12.7692 4.12979 11.974 2.63332 10.7304 1.56711C9.48671 0.500899 7.88634 -0.056418 6.24943 0.00665514C4.61252 0.0697283 3.05978 0.748541 1.90186 1.90729C0.743944 3.06603 0.0662432 4.61926 0.00434136 6.25621C-0.0575605 7.89317 0.500902 9.49314 1.568 10.736C2.6351 11.9789 4.13214 12.773 5.75961 12.9596C7.38709 13.1461 9.02497 12.7112 10.3456 11.742H10.3446C10.3746 11.782 10.4066 11.82 10.4426 11.857L14.2926 15.707C14.4801 15.8946 14.7345 16.0001 14.9997 16.0002C15.265 16.0003 15.5195 15.895 15.7071 15.7075C15.8947 15.52 16.0002 15.2656 16.0003 15.0003C16.0004 14.7351 15.8951 14.4806 15.7076 14.293L11.8576 10.443C11.8218 10.4068 11.7834 10.3734 11.7426 10.343V10.344ZM12.0006 6.49998C12.0006 7.22225 11.8583 7.93745 11.5819 8.60474C11.3055 9.27203 10.9004 9.87834 10.3897 10.3891C9.87896 10.8998 9.27264 11.3049 8.60535 11.5813C7.93806 11.8577 7.22286 12 6.50059 12C5.77832 12 5.06312 11.8577 4.39583 11.5813C3.72854 11.3049 3.12223 10.8998 2.61151 10.3891C2.10078 9.87834 1.69566 9.27203 1.41926 8.60474C1.14285 7.93745 1.00059 7.22225 1.00059 6.49998C1.00059 5.04129 1.58006 3.64234 2.61151 2.61089C3.64296 1.57944 5.0419 0.999979 6.50059 0.999979C7.95928 0.999979 9.35823 1.57944 10.3897 2.61089C11.4211 3.64234 12.0006 5.04129 12.0006 6.49998Z" fill="#23A6F0"/>
</svg>
